<svg width="90" height="90" viewBox="0 0 90 90" fill="none" xmlns="http://www.w3.org/2000/svg">
<path fill-rule="evenodd" clip-rule="evenodd" d="M35.4 14.1863C35.8973 14.1863 36.3742 14.3838 36.7259 14.7355C37.0775 15.0871 37.275 15.564 37.275 16.0613V28.4363C37.275 28.9336 37.0775 29.4105 36.7259 29.7621C36.3742 30.1137 35.8973 30.3113 35.4 30.3113C34.9027 30.3113 34.4258 30.1137 34.0742 29.7621C33.7226 29.4105 33.525 28.9336 33.525 28.4363V16.0613C33.525 15.564 33.7226 15.0871 34.0742 14.7355C34.4258 14.3838 34.9027 14.1863 35.4 14.1863Z" fill="#53A073" fill-opacity="0.51"/>
<path fill-rule="evenodd" clip-rule="evenodd" d="M22.0875 26.0719C24.2063 25.5657 26.3681 25.95 28.6125 27.1088C30.4406 28.0557 31.7381 28.4888 32.7488 28.6969C33.7575 28.9069 34.56 28.9107 35.5294 28.9107V32.6607H35.4919C34.5244 32.6607 33.3919 32.6607 31.9894 32.37C30.57 32.0757 28.9481 31.5038 26.8894 30.4388C25.2431 29.5894 24.0019 29.4694 22.9594 29.7188C21.8644 29.9813 20.7075 30.7125 19.3744 32.0888C16.3144 35.2538 15.3638 38.5125 15.0319 41.0175C14.8444 44.1 15.4013 50.1863 18.1594 56.1357C19.0969 58.1607 20.4281 60.9544 22.0519 63.1425C22.8619 64.2338 23.6756 65.0738 24.4575 65.5913C25.2169 66.0919 25.8469 66.2288 26.4188 66.1313C32.2744 65.1225 33.375 65.0982 34.5169 65.0982H36.4613V68.8482H34.4625C33.6713 68.8482 32.7375 68.8482 27.0563 69.8269C25.2938 70.1307 23.7056 69.5888 22.3913 68.7207C21.0994 67.8675 19.9838 66.6469 19.0406 65.3775C17.1563 62.8407 15.6825 59.7075 14.7581 57.7125C11.6869 51.09 11.0606 44.3307 11.2931 40.7175L11.2988 40.6575L11.3063 40.5975C11.7038 37.515 12.8888 33.3994 16.68 29.4825C18.2644 27.8438 20.0231 26.565 22.0894 26.07L22.0875 26.0719Z" fill="#53A073" fill-opacity="0.51"/>
<path fill-rule="evenodd" clip-rule="evenodd" d="M27.45 21.3937C30.255 24.0769 31.7757 27.33 31.7757 29.85C31.7757 30.3473 31.9732 30.8242 32.3248 31.1758C32.6765 31.5275 33.1534 31.725 33.6507 31.725C34.1479 31.725 34.6248 31.5275 34.9765 31.1758C35.3281 30.8242 35.5257 30.3473 35.5257 29.85C35.5257 26.0063 33.3356 21.8344 30.0413 18.6825C26.7075 15.495 22.0181 13.125 16.68 13.125C16.1827 13.125 15.7058 13.3225 15.3542 13.6742C15.0026 14.0258 14.805 14.5027 14.805 15C14.805 15.4973 15.0026 15.9742 15.3542 16.3258C15.7058 16.6775 16.1827 16.875 16.68 16.875C20.8875 16.875 24.6825 18.7481 27.4481 21.3937H27.45Z" fill="#53A073" fill-opacity="0.51"/>
<path fill-rule="evenodd" clip-rule="evenodd" d="M16.0763 13.1419C16.5696 13.0803 17.0671 13.2172 17.4595 13.5224C17.8518 13.8276 18.107 14.2761 18.1688 14.7694C19.0913 22.1381 25.5657 26.0194 30.795 28.11C31.2568 28.2947 31.6262 28.6553 31.822 29.1124C32.0179 29.5696 32.0241 30.0858 31.8394 30.5475C31.6547 31.0092 31.2941 31.3786 30.8369 31.5745C30.3798 31.7704 29.8636 31.7766 29.4019 31.5919C24.0225 29.4412 15.6488 24.8344 14.4488 15.2344C14.3873 14.7411 14.5241 14.2436 14.8293 13.8512C15.1345 13.4588 15.583 13.2037 16.0763 13.1419ZM48.3038 26.0681C46.1438 25.5731 43.9275 25.9444 41.61 27.0956C39.6975 28.0444 38.3344 28.4831 37.2657 28.695C36.1969 28.9069 35.3494 28.9106 34.3407 28.9106C33.8434 28.9106 33.3665 29.1082 33.0148 29.4598C32.6632 29.8114 32.4657 30.2883 32.4657 30.7856C32.4657 31.2829 32.6632 31.7598 33.0148 32.1114C33.3665 32.4631 33.8434 32.6606 34.3407 32.6606H34.3763C35.3832 32.6606 36.5513 32.6606 37.995 32.3737C39.4594 32.0831 41.1375 31.515 43.275 30.4537C45.0075 29.595 46.335 29.4637 47.4675 29.7225C48.6413 29.9925 49.8619 30.7387 51.2494 32.1169C54.4669 35.31 55.44 38.5894 55.7757 41.0869C55.8485 41.5738 56.11 42.0125 56.5036 42.3083C56.8973 42.6041 57.3914 42.7331 57.8794 42.6676C58.3674 42.6022 58.81 42.3473 59.1117 41.9583C59.4134 41.5692 59.55 41.077 59.4919 40.5881C59.0757 37.4887 57.8344 33.3694 53.8913 29.4544C52.2394 27.8156 50.4225 26.5519 48.3038 26.0681ZM50.0757 64.275C49.8983 64.1042 49.6889 63.9701 49.4597 63.8802C49.2304 63.7903 48.9857 63.7465 48.7395 63.7512C48.4933 63.7559 48.2505 63.809 48.0248 63.9076C47.7992 64.0062 47.5952 64.1482 47.4244 64.3256C46.005 65.7994 44.8125 66.2944 43.8038 66.1294C37.7063 65.1206 36.5663 65.0981 35.3944 65.0981C34.8971 65.0981 34.4202 65.2957 34.0686 65.6473C33.7169 65.9989 33.5194 66.4758 33.5194 66.9731C33.5194 67.4704 33.7169 67.9473 34.0686 68.2989C34.4202 68.6506 34.8971 68.8481 35.3944 68.8481H35.4469C36.285 68.8481 37.26 68.8481 43.1907 69.8287C46.0444 70.3012 48.4125 68.7056 50.1263 66.9262C50.2973 66.7488 50.4317 66.5394 50.5218 66.3099C50.6118 66.0805 50.6557 65.8356 50.651 65.5892C50.6463 65.3428 50.5931 65.0997 50.4944 64.8739C50.3956 64.648 50.2533 64.4458 50.0757 64.275Z" fill="#53A073" fill-opacity="0.51"/>
<path fill-rule="evenodd" clip-rule="evenodd" d="M61.2188 30.1931C59.3382 33.5869 58.8506 37.1475 59.5988 39.5531C59.6719 39.7883 59.698 40.0355 59.6756 40.2808C59.6532 40.526 59.5826 40.7644 59.4681 40.9824C59.3535 41.2004 59.1971 41.3937 59.0079 41.5512C58.8186 41.7088 58.6002 41.8275 58.365 41.9006C58.1299 41.9738 57.8826 41.9999 57.6374 41.9774C57.3922 41.955 57.1537 41.8845 56.9358 41.7699C56.7178 41.6554 56.5245 41.499 56.3669 41.3097C56.2094 41.1205 56.0907 40.902 56.0175 40.6669C54.8756 36.9938 55.7306 32.3606 57.9394 28.3744C60.1763 24.3394 63.9507 20.685 69.0488 19.0988C69.2839 19.0256 69.5312 18.9995 69.7764 19.022C70.0216 19.0444 70.2601 19.1149 70.478 19.2294C70.696 19.344 70.8893 19.5004 71.0469 19.6897C71.2044 19.8789 71.3231 20.0974 71.3963 20.3325C71.4694 20.5677 71.4955 20.8149 71.4731 21.0601C71.4507 21.3054 71.3801 21.5438 71.2656 21.7618C71.151 21.9798 70.9946 22.173 70.8054 22.3306C70.6161 22.4881 70.3977 22.6069 70.1625 22.68C66.1444 23.9288 63.075 26.8463 61.2188 30.1931Z" fill="#53A073" fill-opacity="0.51"/>
<path fill-rule="evenodd" clip-rule="evenodd" d="M65.0982 32.5856C62.9082 35.7919 59.9457 37.8225 57.4613 38.235C57.2153 38.2717 56.979 38.3569 56.7663 38.4858C56.5536 38.6146 56.3686 38.7845 56.2222 38.9856C56.0757 39.1866 55.9708 39.4148 55.9134 39.6568C55.856 39.8988 55.8473 40.1498 55.8878 40.3952C55.9284 40.6405 56.0173 40.8754 56.1495 41.0861C56.2817 41.2968 56.4545 41.479 56.6578 41.6223C56.8612 41.7655 57.0909 41.8669 57.3338 41.9205C57.5767 41.974 57.8278 41.9788 58.0725 41.9344C61.8657 41.3062 65.6232 38.4637 68.1938 34.7006C70.7963 30.8906 72.3694 25.8769 71.4975 20.61C71.4574 20.367 71.3698 20.1342 71.2397 19.925C71.1096 19.7159 70.9396 19.5344 70.7394 19.3909C70.5392 19.2474 70.3126 19.1448 70.0728 19.0889C69.8329 19.033 69.5843 19.0248 69.3413 19.065C69.0983 19.1051 68.8655 19.1927 68.6563 19.3228C68.4472 19.4529 68.2657 19.6229 68.1222 19.8231C67.9787 20.0234 67.8761 20.2499 67.8202 20.4898C67.7643 20.7297 67.7562 20.9782 67.7963 21.2212C68.4844 25.3725 67.2563 29.4244 65.0963 32.5837L65.0982 32.5856Z" fill="#53A073" fill-opacity="0.51"/>
<path fill-rule="evenodd" clip-rule="evenodd" d="M59.5875 43.125C58.3443 43.125 57.152 43.6189 56.273 44.4979C55.3939 45.377 54.9 46.5693 54.9 47.8125C54.9 49.0557 55.3939 50.248 56.273 51.1271C57.152 52.0061 58.3443 52.5 59.5875 52.5C60.8307 52.5 62.023 52.0061 62.9021 51.1271C63.7812 50.248 64.275 49.0557 64.275 47.8125C64.275 46.5693 63.7812 45.377 62.9021 44.4979C62.023 43.6189 60.8307 43.125 59.5875 43.125ZM51.15 47.8125C51.15 46.7045 51.3683 45.6073 51.7923 44.5836C52.2163 43.5599 52.8378 42.6298 53.6213 41.8463C54.4048 41.0628 55.3349 40.4413 56.3586 40.0173C57.3823 39.5932 58.4795 39.375 59.5875 39.375C60.6956 39.375 61.7927 39.5932 62.8164 40.0173C63.8401 40.4413 64.7702 41.0628 65.5537 41.8463C66.3372 42.6298 66.9587 43.5599 67.3828 44.5836C67.8068 45.6073 68.025 46.7045 68.025 47.8125C68.025 50.0503 67.1361 52.1964 65.5537 53.7787C63.9714 55.3611 61.8253 56.25 59.5875 56.25C57.3498 56.25 55.2036 55.3611 53.6213 53.7787C52.039 52.1964 51.15 50.0503 51.15 47.8125Z" fill="#53A073" fill-opacity="0.51"/>
<path fill-rule="evenodd" clip-rule="evenodd" d="M70.9594 33.9187C73.0656 34.6744 74.7853 36.2358 75.7403 38.2594C76.6953 40.283 76.8074 42.6031 76.0519 44.7094C75.9688 44.9412 75.8408 45.1544 75.6753 45.3368C75.5098 45.5191 75.31 45.6671 75.0874 45.7723C74.8647 45.8775 74.6235 45.9377 74.3775 45.9497C74.1315 45.9616 73.8856 45.925 73.6538 45.8419C73.4219 45.7588 73.2087 45.6308 73.0264 45.4653C72.844 45.2998 72.696 45.1 72.5908 44.8774C72.4857 44.6547 72.4254 44.4135 72.4135 44.1675C72.4015 43.9215 72.4381 43.6756 72.5213 43.4437C72.9415 42.2736 72.8796 40.9845 72.3494 39.86C71.8191 38.7355 70.8638 37.8677 69.6937 37.4475C68.5236 37.0273 67.2345 37.0891 66.11 37.6194C64.9855 38.1496 64.1177 39.1049 63.6975 40.275C63.521 40.7313 63.1731 41.1005 62.7281 41.3039C62.2831 41.5072 61.7763 41.5286 61.3158 41.3634C60.8553 41.1982 60.4775 40.8596 60.2632 40.4198C60.0489 39.98 60.015 39.4738 60.1687 39.0094C60.9248 36.9035 62.4864 35.1842 64.5099 34.2296C66.5335 33.2749 68.8534 33.1631 70.9594 33.9187Z" fill="#53A073" fill-opacity="0.51"/>
<path fill-rule="evenodd" clip-rule="evenodd" d="M67.9744 43.455C69.894 42.9044 71.9466 43.0523 73.7673 43.8725C75.5881 44.6927 77.059 46.1319 77.9187 47.9344C78.7783 49.7368 78.9709 51.7857 78.4623 53.7168C77.9536 55.6479 76.7767 57.3361 75.1406 58.4812C74.939 58.6281 74.7101 58.7332 74.4673 58.7905C74.2245 58.8478 73.9728 58.856 73.7268 58.8148C73.4807 58.7736 73.2454 58.6836 73.0346 58.5503C72.8238 58.417 72.6417 58.2429 72.499 58.0383C72.3562 57.8337 72.2558 57.6027 72.2035 57.3588C72.1512 57.1149 72.148 56.8631 72.1943 56.6179C72.2405 56.3728 72.3353 56.1394 72.4729 55.9313C72.6105 55.7233 72.7882 55.5447 72.9956 55.4062C73.5116 55.0454 73.9496 54.5843 74.2835 54.0504C74.6174 53.5166 74.8403 52.9209 74.9389 52.299C75.0375 51.6772 75.0098 51.0418 74.8575 50.4308C74.7051 49.8199 74.4313 49.2459 74.0522 48.7431C73.6732 48.2403 73.1967 47.8191 72.6513 47.5045C72.1059 47.1899 71.5027 46.9884 70.8777 46.912C70.2527 46.8356 69.6187 46.886 69.0136 47.06C68.4084 47.2341 67.8446 47.5282 67.3556 47.925C67.1646 48.0804 66.9448 48.1966 66.7088 48.267C66.4728 48.3374 66.2252 48.3607 65.9803 48.3354C65.7353 48.3102 65.4977 48.2369 65.281 48.1199C65.0644 48.0028 64.8729 47.8442 64.7175 47.6531C64.5621 47.462 64.4459 47.2422 64.3755 47.0062C64.3051 46.7703 64.2818 46.5227 64.3071 46.2777C64.3323 46.0328 64.4056 45.7952 64.5227 45.5785C64.6397 45.3618 64.7983 45.1704 64.9894 45.015C65.8695 44.2997 66.8847 43.7691 67.9744 43.455ZM52.0875 54.375C50.8443 54.375 49.652 54.8688 48.773 55.7479C47.8939 56.627 47.4 57.8193 47.4 59.0625C47.4 60.3057 47.8939 61.498 48.773 62.377C49.652 63.2561 50.8443 63.75 52.0875 63.75C53.3307 63.75 54.523 63.2561 55.4021 62.377C56.2812 61.498 56.775 60.3057 56.775 59.0625C56.775 57.8193 56.2812 56.627 55.4021 55.7479C54.523 54.8688 53.3307 54.375 52.0875 54.375ZM43.65 59.0625C43.65 56.8247 44.539 54.6786 46.1213 53.0963C47.7036 51.5139 49.8498 50.625 52.0875 50.625C54.3253 50.625 56.4714 51.5139 58.0537 53.0963C59.6361 54.6786 60.525 56.8247 60.525 59.0625C60.525 61.3002 59.6361 63.4464 58.0537 65.0287C56.4714 66.611 54.3253 67.5 52.0875 67.5C49.8498 67.5 47.7036 66.611 46.1213 65.0287C44.539 63.4464 43.65 61.3002 43.65 59.0625Z" fill="#53A073" fill-opacity="0.51"/>
<path fill-rule="evenodd" clip-rule="evenodd" d="M67.0875 54.375C65.8443 54.375 64.652 54.8689 63.773 55.7479C62.8939 56.627 62.4 57.8193 62.4 59.0625C62.4 60.3057 62.8939 61.498 63.773 62.3771C64.652 63.2561 65.8443 63.75 67.0875 63.75C68.3307 63.75 69.523 63.2561 70.4021 62.3771C71.2812 61.498 71.775 60.3057 71.775 59.0625C71.775 57.8193 71.2812 56.627 70.4021 55.7479C69.523 54.8689 68.3307 54.375 67.0875 54.375ZM58.65 59.0625C58.65 56.8247 59.539 54.6786 61.1213 53.0963C62.7036 51.5139 64.8498 50.625 67.0875 50.625C69.3253 50.625 71.4714 51.5139 73.0537 53.0963C74.6361 54.6786 75.525 56.8247 75.525 59.0625C75.525 61.3003 74.6361 63.4464 73.0537 65.0287C71.4714 66.6111 69.3253 67.5 67.0875 67.5C64.8498 67.5 62.7036 66.6111 61.1213 65.0287C59.539 63.4464 58.65 61.3003 58.65 59.0625Z" fill="#53A073" fill-opacity="0.51"/>
<path fill-rule="evenodd" clip-rule="evenodd" d="M59.5875 65.625C58.3443 65.625 57.152 66.1189 56.273 66.9979C55.3939 67.877 54.9 69.0693 54.9 70.3125C54.9 71.5557 55.3939 72.748 56.273 73.6271C57.152 74.5061 58.3443 75 59.5875 75C60.8307 75 62.023 74.5061 62.9021 73.6271C63.7812 72.748 64.275 71.5557 64.275 70.3125C64.275 69.0693 63.7812 67.877 62.9021 66.9979C62.023 66.1189 60.8307 65.625 59.5875 65.625ZM51.15 70.3125C51.15 69.2045 51.3683 68.1073 51.7923 67.0836C52.2163 66.0599 52.8378 65.1298 53.6213 64.3463C54.4048 63.5628 55.3349 62.9413 56.3586 62.5173C57.3823 62.0932 58.4795 61.875 59.5875 61.875C60.6956 61.875 61.7927 62.0932 62.8164 62.5173C63.8401 62.9413 64.7702 63.5628 65.5537 64.3463C66.3372 65.1298 66.9587 66.0599 67.3828 67.0836C67.8068 68.1073 68.025 69.2045 68.025 70.3125C68.025 72.5503 67.1361 74.6964 65.5537 76.2787C63.9714 77.8611 61.8253 78.75 59.5875 78.75C57.3498 78.75 55.2036 77.8611 53.6213 76.2787C52.039 74.6964 51.15 72.5503 51.15 70.3125Z" fill="#53A073" fill-opacity="0.51"/>
<path fill-rule="evenodd" clip-rule="evenodd" d="M70.9388 63.6862C71.0215 63.4543 71.149 63.2409 71.3142 63.0582C71.4794 62.8756 71.679 62.7272 71.9015 62.6217C72.124 62.5162 72.3652 62.4556 72.6111 62.4433C72.8571 62.431 73.1031 62.4672 73.335 62.55C74.5245 62.9747 75.6035 63.6611 76.4923 64.5584C77.3812 65.4558 78.0572 66.5413 78.4706 67.7348C78.8839 68.9283 79.0241 70.1993 78.8806 71.4542C78.7372 72.7091 78.3139 73.9158 77.6419 74.9852C76.9699 76.0547 76.0664 76.9596 74.998 77.6333C73.9296 78.307 72.7235 78.7322 71.4689 78.8775C70.2142 79.0229 68.9429 78.8848 67.7488 78.4733C66.5546 78.0618 65.4681 77.3874 64.5694 76.5C64.3895 76.3281 64.2457 76.1221 64.1463 75.8941C64.0468 75.666 63.9938 75.4205 63.9902 75.1717C63.9866 74.9229 64.0325 74.676 64.1253 74.4451C64.2181 74.2143 64.356 74.0043 64.5308 73.8273C64.7055 73.6502 64.9138 73.5097 65.1434 73.414C65.3731 73.3183 65.6194 73.2692 65.8682 73.2696C66.117 73.27 66.3632 73.32 66.5925 73.4165C66.8218 73.513 67.0296 73.6542 67.2038 73.8319C67.703 74.3249 68.3066 74.6995 68.9699 74.9282C69.6333 75.1568 70.3395 75.2336 71.0365 75.1529C71.7335 75.0723 72.4034 74.8361 72.997 74.462C73.5906 74.0878 74.0926 73.5852 74.466 72.9912C74.8394 72.3971 75.0747 71.7269 75.1545 71.0298C75.2343 70.3327 75.1566 69.6265 74.9272 68.9635C74.6977 68.3004 74.3223 67.6973 73.8286 67.1987C73.335 66.7001 72.7357 66.3186 72.075 66.0825C71.843 65.9998 71.6296 65.8722 71.447 65.707C71.2643 65.5418 71.116 65.3422 71.0105 65.1197C70.905 64.8972 70.8443 64.6561 70.832 64.4101C70.8197 64.1641 70.856 63.9182 70.9388 63.6862Z" fill="#53A073" fill-opacity="0.51"/>
</svg>
