<svg width="90" height="90" viewBox="0 0 90 90" fill="none" xmlns="http://www.w3.org/2000/svg">
<path d="M64.2769 16.8975C56.7113 17.1057 50.8472 19.1588 45.1378 21.1444C39.0319 23.265 33.2691 25.2647 25.2844 25.3463C19.9491 25.4307 14.6053 24.5082 9.35437 22.6913L5.625 21.4032V69.4463L7.49812 70.1128C12.3891 71.8425 17.3897 72.841 22.3678 73.0772C23.1581 73.1138 23.9316 73.1335 24.6909 73.1335C33.165 73.1335 39.6534 70.8835 45.945 68.7122C52.5769 66.4172 58.8319 64.2488 67.3678 64.651C71.8923 64.8834 76.3582 65.7779 80.6231 67.306L84.375 68.6335V20.5707L82.5244 19.8957C77.7387 18.1527 72.7148 17.1512 67.6266 16.9257C66.5107 16.8761 65.3934 16.8667 64.2769 16.8975ZM64.4288 22.4832C65.385 22.455 66.3638 22.455 67.3791 22.4944C68.4309 22.5394 69.4828 22.635 70.5319 22.7588C70.9598 24.5235 72.0551 26.0536 73.5876 27.0276C75.1202 28.0015 76.9706 28.3435 78.75 27.9816V53.581C77.8287 53.3935 76.879 53.393 75.9575 53.5797C75.036 53.7663 74.1614 54.1362 73.3857 54.6675C72.6099 55.1987 71.9488 55.8805 71.4417 56.6722C70.9345 57.4639 70.5917 58.3495 70.4334 59.2763C69.5018 59.1805 68.5677 59.1111 67.6322 59.0682C58.0275 58.6463 50.9456 61.0622 44.1 63.436C37.4597 65.7366 31.1681 67.9107 22.6378 67.5057C21.5754 67.4501 20.5153 67.3563 19.4597 67.2244C19.0281 65.4646 17.9326 63.9399 16.4023 62.9696C14.8721 61.9992 13.0258 61.6584 11.25 62.0185V36.4191C12.1769 36.6077 13.1323 36.6069 14.0588 36.4166C14.9853 36.2263 15.8637 35.8505 16.6412 35.3119C17.4187 34.7732 18.0792 34.0828 18.5829 33.2823C19.0866 32.4817 19.4231 31.5875 19.5722 30.6535C21.4988 30.8532 23.4253 30.9685 25.3463 30.9375C34.2478 30.8475 40.7194 28.5947 46.9828 26.4178C52.4981 24.4969 57.7547 22.6913 64.4288 22.4832ZM45 30.9375C38.7956 30.9375 33.75 37.246 33.75 45C33.75 52.7541 38.7956 59.0625 45 59.0625C51.2044 59.0625 56.25 52.7541 56.25 45C56.25 37.246 51.2044 30.9375 45 30.9375ZM45 36.5625C48.0488 36.5625 50.625 40.4269 50.625 45C50.625 49.5732 48.0488 53.4375 45 53.4375C41.9512 53.4375 39.375 49.5732 39.375 45C39.375 40.4269 41.9512 36.5625 45 36.5625ZM66.0938 36.5625C64.9749 36.5625 63.9018 37.007 63.1106 37.7982C62.3195 38.5893 61.875 39.6624 61.875 40.7813C61.875 41.9002 62.3195 42.9732 63.1106 43.7644C63.9018 44.5556 64.9749 45 66.0938 45C67.2126 45 68.2857 44.5556 69.0769 43.7644C69.868 42.9732 70.3125 41.9002 70.3125 40.7813C70.3125 39.6624 69.868 38.5893 69.0769 37.7982C68.2857 37.007 67.2126 36.5625 66.0938 36.5625ZM23.9062 45C22.7874 45 21.7143 45.4445 20.9231 46.2357C20.132 47.0268 19.6875 48.0999 19.6875 49.2188C19.6875 50.3377 20.132 51.4107 20.9231 52.2019C21.7143 52.993 22.7874 53.4375 23.9062 53.4375C25.0251 53.4375 26.0982 52.993 26.8894 52.2019C27.6805 51.4107 28.125 50.3377 28.125 49.2188C28.125 48.0999 27.6805 47.0268 26.8894 46.2357C26.0982 45.4445 25.0251 45 23.9062 45Z" fill="#53A073" fill-opacity="0.51"/>
</svg>
