<svg width="80" height="80" viewBox="0 0 80 80" fill="none" xmlns="http://www.w3.org/2000/svg">
<path d="M40.6 66.6667C41.2 69.0667 42.1667 71.3 43.4667 73.3334H20C16.3 73.3334 13.3333 70.3667 13.3333 66.6667V13.3334C13.3333 11.5652 14.0357 9.86955 15.286 8.61931C16.5362 7.36907 18.2319 6.66669 20 6.66669H60C61.7681 6.66669 63.4638 7.36907 64.7141 8.61931C65.9643 9.86955 66.6667 11.5652 66.6667 13.3334V40.6C65 40.2334 63.3333 40 61.6667 40C61.1 40 60.5667 40 60 40.1V13.3334H43.3333V40L35 32.5L26.6667 40V13.3334H20V66.6667H40.6ZM73.3333 61.6667V48.3334L69.4333 52.2334C68.1953 50.9941 66.7246 50.0116 65.1057 49.3423C63.4869 48.673 61.7518 48.3302 60 48.3334C52.6333 48.3334 46.6667 54.3 46.6667 61.6667C46.6667 69.0334 52.6333 75 60 75C65.6 75 70.4 71.5667 72.3667 66.6667H66.6667C65.646 68.0239 64.2351 69.037 62.6228 69.5701C61.0105 70.1033 59.2738 70.1312 57.6452 69.65C56.0166 69.1688 54.5739 68.2016 53.5103 66.8778C52.4466 65.554 51.8127 63.9369 51.6936 62.2429C51.5744 60.5489 51.9757 58.8589 52.8436 57.3993C53.7114 55.9396 55.0046 54.78 56.5498 54.0756C58.0949 53.3712 59.8185 53.1557 61.4895 53.4579C63.1606 53.7601 64.6994 54.5657 65.9 55.7667L60 61.6667H73.3333Z" fill="#53A073" fill-opacity="0.51"/>
</svg>
